<mxfile host="65bd71144e">
    <diagram id="NzMNxLvaUN8R5qRyzuPa" name="Page-1">
        <mxGraphModel dx="674" dy="622" grid="1" gridSize="10" guides="1" tooltips="1" connect="1" arrows="1" fold="1" page="1" pageScale="1" pageWidth="850" pageHeight="1100" math="0" shadow="0">
            <root>
                <mxCell id="0"/>
                <mxCell id="1" parent="0"/>
                <mxCell id="3" value="Window Title" style="strokeWidth=1;shadow=0;dashed=0;align=center;html=1;shape=mxgraph.mockup.containers.window;align=left;verticalAlign=top;spacingLeft=8;strokeColor2=#008cff;strokeColor3=#c4c4c4;fontColor=#666666;mainText=;fontSize=17;labelBackgroundColor=none;" vertex="1" parent="1">
                    <mxGeometry x="70" y="130" width="550" height="1460" as="geometry"/>
                </mxCell>
                <mxCell id="7" value="" style="shape=ext;double=1;rounded=1;whiteSpace=wrap;html=1;" vertex="1" parent="1">
                    <mxGeometry x="99" y="660" width="370" height="320" as="geometry"/>
                </mxCell>
                <mxCell id="6" value="" style="shape=ext;double=1;rounded=1;whiteSpace=wrap;html=1;" vertex="1" parent="1">
                    <mxGeometry x="219" y="380" width="381" height="320" as="geometry"/>
                </mxCell>
                <mxCell id="5" value="" style="shape=ext;double=1;rounded=1;whiteSpace=wrap;html=1;" vertex="1" parent="1">
                    <mxGeometry x="99" y="198" width="291" height="261" as="geometry"/>
                </mxCell>
                <mxCell id="4" value="" style="verticalLabelPosition=bottom;shadow=0;dashed=0;align=center;html=1;verticalAlign=top;strokeWidth=1;shape=mxgraph.mockup.containers.userMale;strokeColor=#666666;strokeColor2=#008cff;" vertex="1" parent="1">
                    <mxGeometry x="128" y="232" width="100" height="100" as="geometry"/>
                </mxCell>
                <mxCell id="9" value="" style="shape=ext;double=1;rounded=1;whiteSpace=wrap;html=1;" vertex="1" parent="1">
                    <mxGeometry x="99" y="1000" width="501" height="320" as="geometry"/>
                </mxCell>
                <mxCell id="10" value="" style="shape=ext;double=1;rounded=0;whiteSpace=wrap;html=1;" vertex="1" parent="1">
                    <mxGeometry x="99" y="1050" width="501" height="230" as="geometry"/>
                </mxCell>
                <mxCell id="11" value="" style="verticalLabelPosition=bottom;shadow=0;dashed=0;align=center;html=1;verticalAlign=top;strokeWidth=1;shape=mxgraph.mockup.containers.userMale;strokeColor=#666666;strokeColor2=#008cff;" vertex="1" parent="1">
                    <mxGeometry x="110" y="1080" width="150" height="170" as="geometry"/>
                </mxCell>
                <mxCell id="12" value="" style="verticalLabelPosition=bottom;shadow=0;dashed=0;align=center;html=1;verticalAlign=top;strokeWidth=1;shape=mxgraph.mockup.containers.userMale;strokeColor=#666666;strokeColor2=#008cff;" vertex="1" parent="1">
                    <mxGeometry x="280" y="1080" width="150" height="170" as="geometry"/>
                </mxCell>
                <mxCell id="13" value="" style="verticalLabelPosition=bottom;shadow=0;dashed=0;align=center;html=1;verticalAlign=top;strokeWidth=1;shape=mxgraph.mockup.containers.userMale;strokeColor=#666666;strokeColor2=#008cff;" vertex="1" parent="1">
                    <mxGeometry x="450" y="1080" width="140" height="167" as="geometry"/>
                </mxCell>
                <mxCell id="14" value="" style="strokeWidth=1;shadow=0;dashed=0;align=center;html=1;shape=mxgraph.mockup.buttons.multiButton;fillColor=#008cff;strokeColor=#666666;mainText=;subText=;" vertex="1" parent="1">
                    <mxGeometry x="123" y="673" width="91" height="34" as="geometry"/>
                </mxCell>
                <mxCell id="15" value="HOME" style="strokeWidth=1;shadow=0;dashed=0;align=center;html=1;shape=mxgraph.mockup.anchor;fontSize=16;fontColor=#ffffff;fontStyle=1;whiteSpace=wrap;" vertex="1" parent="14">
                    <mxGeometry y="10.2" width="91" height="13.6" as="geometry"/>
                </mxCell>
                <mxCell id="18" value="" style="strokeWidth=1;shadow=0;dashed=0;align=center;html=1;shape=mxgraph.mockup.buttons.multiButton;fillColor=#008cff;strokeColor=#666666;mainText=;subText=;" vertex="1" parent="1">
                    <mxGeometry x="395" y="397" width="91" height="34" as="geometry"/>
                </mxCell>
                <mxCell id="19" value="HOME" style="strokeWidth=1;shadow=0;dashed=0;align=center;html=1;shape=mxgraph.mockup.anchor;fontSize=16;fontColor=#ffffff;fontStyle=1;whiteSpace=wrap;" vertex="1" parent="18">
                    <mxGeometry y="10.2" width="91" height="13.6" as="geometry"/>
                </mxCell>
                <mxCell id="20" value="dddd" style="strokeWidth=1;shadow=0;dashed=0;align=center;html=1;shape=mxgraph.mockup.buttons.multiButton;fillColor=#008cff;strokeColor=#666666;mainText=;subText=;" vertex="1" parent="1">
                    <mxGeometry x="493" y="397" width="91" height="34" as="geometry"/>
                </mxCell>
                <mxCell id="21" value="HOME" style="strokeWidth=1;shadow=0;dashed=0;align=center;html=1;shape=mxgraph.mockup.anchor;fontSize=16;fontColor=#ffffff;fontStyle=1;whiteSpace=wrap;" vertex="1" parent="20">
                    <mxGeometry y="10.2" width="91" height="13.6" as="geometry"/>
                </mxCell>
                <mxCell id="22" value="" style="strokeWidth=1;shadow=0;dashed=0;align=center;html=1;shape=mxgraph.mockup.buttons.multiButton;fillColor=#008cff;strokeColor=#666666;mainText=;subText=;" vertex="1" parent="1">
                    <mxGeometry x="128" y="1010" width="91" height="34" as="geometry"/>
                </mxCell>
                <mxCell id="23" value="HOME" style="strokeWidth=1;shadow=0;dashed=0;align=center;html=1;shape=mxgraph.mockup.anchor;fontSize=16;fontColor=#ffffff;fontStyle=1;whiteSpace=wrap;" vertex="1" parent="22">
                    <mxGeometry y="10.2" width="91" height="13.6" as="geometry"/>
                </mxCell>
                <mxCell id="24" value="" style="verticalLabelPosition=bottom;shadow=0;dashed=0;align=center;html=1;verticalAlign=top;strokeWidth=1;shape=mxgraph.mockup.graphics.simpleIcon;strokeColor=#999999;" vertex="1" parent="1">
                    <mxGeometry x="109" y="1341" width="50" height="50" as="geometry"/>
                </mxCell>
                <mxCell id="25" value="" style="shape=ext;double=1;rounded=1;whiteSpace=wrap;html=1;" vertex="1" parent="1">
                    <mxGeometry x="100" y="1409" width="490" height="130" as="geometry"/>
                </mxCell>
                <mxCell id="26" value="" style="shape=ext;double=1;rounded=1;whiteSpace=wrap;html=1;" vertex="1" parent="1">
                    <mxGeometry x="180" y="1343" width="410" height="51" as="geometry"/>
                </mxCell>
                <mxCell id="27" value="" style="strokeWidth=1;shadow=0;dashed=0;align=center;html=1;shape=mxgraph.mockup.buttons.multiButton;fillColor=#008cff;strokeColor=#666666;mainText=;subText=;" vertex="1" parent="1">
                    <mxGeometry x="262" y="1350.5" width="91" height="34" as="geometry"/>
                </mxCell>
                <mxCell id="28" value="HOME" style="strokeWidth=1;shadow=0;dashed=0;align=center;html=1;shape=mxgraph.mockup.anchor;fontSize=16;fontColor=#ffffff;fontStyle=1;whiteSpace=wrap;" vertex="1" parent="27">
                    <mxGeometry y="10.2" width="91" height="13.6" as="geometry"/>
                </mxCell>
                <mxCell id="33" value="" style="line;strokeWidth=2;html=1;" vertex="1" parent="27">
                    <mxGeometry x="-69" y="0.7" width="39" height="10" as="geometry"/>
                </mxCell>
                <mxCell id="29" value="" style="strokeWidth=1;shadow=0;dashed=0;align=center;html=1;shape=mxgraph.mockup.buttons.multiButton;fillColor=#008cff;strokeColor=#666666;mainText=;subText=;" vertex="1" parent="1">
                    <mxGeometry x="370" y="1351" width="91" height="34" as="geometry"/>
                </mxCell>
                <mxCell id="30" value="HOME" style="strokeWidth=1;shadow=0;dashed=0;align=center;html=1;shape=mxgraph.mockup.anchor;fontSize=16;fontColor=#ffffff;fontStyle=1;whiteSpace=wrap;" vertex="1" parent="29">
                    <mxGeometry y="10.2" width="91" height="13.6" as="geometry"/>
                </mxCell>
                <mxCell id="31" value="" style="strokeWidth=1;shadow=0;dashed=0;align=center;html=1;shape=mxgraph.mockup.buttons.multiButton;fillColor=#008cff;strokeColor=#666666;mainText=;subText=;" vertex="1" parent="1">
                    <mxGeometry x="483" y="1350.5" width="91" height="34" as="geometry"/>
                </mxCell>
                <mxCell id="32" value="HOME" style="strokeWidth=1;shadow=0;dashed=0;align=center;html=1;shape=mxgraph.mockup.anchor;fontSize=16;fontColor=#ffffff;fontStyle=1;whiteSpace=wrap;" vertex="1" parent="31">
                    <mxGeometry y="10.2" width="91" height="13.6" as="geometry"/>
                </mxCell>
                <mxCell id="34" value="" style="line;strokeWidth=2;html=1;" vertex="1" parent="1">
                    <mxGeometry x="193" y="1361.2" width="39" height="10" as="geometry"/>
                </mxCell>
                <mxCell id="35" value="" style="line;strokeWidth=2;html=1;" vertex="1" parent="1">
                    <mxGeometry x="192" y="1371.2" width="39" height="10" as="geometry"/>
                </mxCell>
                <mxCell id="47" value="" style="group" vertex="1" connectable="0" parent="1">
                    <mxGeometry x="200" y="170" width="410" height="51" as="geometry"/>
                </mxCell>
                <mxCell id="37" value="" style="shape=ext;double=1;rounded=1;whiteSpace=wrap;html=1;" vertex="1" parent="47">
                    <mxGeometry width="410" height="51" as="geometry"/>
                </mxCell>
                <mxCell id="38" value="" style="strokeWidth=1;shadow=0;dashed=0;align=center;html=1;shape=mxgraph.mockup.buttons.multiButton;fillColor=#008cff;strokeColor=#666666;mainText=;subText=;" vertex="1" parent="47">
                    <mxGeometry x="82" y="7.5" width="91" height="34" as="geometry"/>
                </mxCell>
                <mxCell id="39" value="HOME" style="strokeWidth=1;shadow=0;dashed=0;align=center;html=1;shape=mxgraph.mockup.anchor;fontSize=16;fontColor=#ffffff;fontStyle=1;whiteSpace=wrap;" vertex="1" parent="38">
                    <mxGeometry y="10.2" width="91" height="13.6" as="geometry"/>
                </mxCell>
                <mxCell id="40" value="" style="line;strokeWidth=2;html=1;" vertex="1" parent="38">
                    <mxGeometry x="-69" y="0.7" width="39" height="10" as="geometry"/>
                </mxCell>
                <mxCell id="41" value="" style="strokeWidth=1;shadow=0;dashed=0;align=center;html=1;shape=mxgraph.mockup.buttons.multiButton;fillColor=#008cff;strokeColor=#666666;mainText=;subText=;" vertex="1" parent="47">
                    <mxGeometry x="190" y="8" width="91" height="34" as="geometry"/>
                </mxCell>
                <mxCell id="42" value="HOME" style="strokeWidth=1;shadow=0;dashed=0;align=center;html=1;shape=mxgraph.mockup.anchor;fontSize=16;fontColor=#ffffff;fontStyle=1;whiteSpace=wrap;" vertex="1" parent="41">
                    <mxGeometry y="10.2" width="91" height="13.6" as="geometry"/>
                </mxCell>
                <mxCell id="43" value="" style="strokeWidth=1;shadow=0;dashed=0;align=center;html=1;shape=mxgraph.mockup.buttons.multiButton;fillColor=#008cff;strokeColor=#666666;mainText=;subText=;" vertex="1" parent="47">
                    <mxGeometry x="303" y="7.5" width="91" height="34" as="geometry"/>
                </mxCell>
                <mxCell id="44" value="HOME" style="strokeWidth=1;shadow=0;dashed=0;align=center;html=1;shape=mxgraph.mockup.anchor;fontSize=16;fontColor=#ffffff;fontStyle=1;whiteSpace=wrap;" vertex="1" parent="43">
                    <mxGeometry y="10.2" width="91" height="13.6" as="geometry"/>
                </mxCell>
                <mxCell id="45" value="" style="line;strokeWidth=2;html=1;" vertex="1" parent="47">
                    <mxGeometry x="12" y="18.200000000000045" width="39" height="10" as="geometry"/>
                </mxCell>
                <mxCell id="46" value="" style="line;strokeWidth=2;html=1;" vertex="1" parent="47">
                    <mxGeometry x="12" y="28.200000000000045" width="39" height="10" as="geometry"/>
                </mxCell>
            </root>
        </mxGraphModel>
    </diagram>
</mxfile>